<?xml version="1.0" encoding="UTF-8"?>
<!-- Generator: visioncortex VTracer 0.6.4 -->
<svg color="#01040C" version="1.1" xmlns="http://www.w3.org/2000/svg" width="1024" height="1024">
  <path
    d="M0 0 C1.72 -0 3.44 -0.01 5.15 -0.01 C9.82 -0.03 14.48 -0.03 19.15 -0.02 C24.2 -0.02 29.26 -0.03 34.31 -0.04 C44.19 -0.06 54.07 -0.07 63.95 -0.07 C71.99 -0.07 80.03 -0.07 88.07 -0.08 C110.91 -0.1 133.75 -0.1 156.6 -0.1 C157.82 -0.1 159.05 -0.1 160.32 -0.1 C161.55 -0.1 162.78 -0.1 164.05 -0.1 C183.98 -0.1 203.9 -0.12 223.83 -0.15 C244.34 -0.18 264.85 -0.19 285.37 -0.19 C296.86 -0.19 308.36 -0.19 319.85 -0.22 C329.64 -0.23 339.43 -0.24 349.22 -0.23 C354.2 -0.22 359.19 -0.22 364.17 -0.24 C417.33 -0.41 464.33 10.05 503.61 48.27 C533.19 77.83 548.24 120.28 548.32 161.66 C548.32 163.17 548.32 164.68 548.32 166.19 C548.32 167.82 548.33 169.44 548.33 171.06 C548.34 175.5 548.34 179.94 548.35 184.38 C548.35 189.18 548.36 193.97 548.37 198.77 C548.39 210.35 548.4 221.92 548.41 233.5 C548.41 238.97 548.42 244.43 548.42 249.9 C548.44 268.08 548.45 286.27 548.46 304.45 C548.46 309.17 548.47 313.88 548.47 318.6 C548.47 319.77 548.47 320.94 548.47 322.15 C548.48 341.1 548.5 360.04 548.54 378.99 C548.57 398.48 548.59 417.97 548.59 437.46 C548.59 448.39 548.6 459.32 548.63 470.24 C548.65 479.56 548.66 488.87 548.65 498.19 C548.64 502.93 548.64 507.67 548.66 512.41 C548.87 565.62 538.92 616.41 501.17 656.27 C500.4 657.09 499.63 657.91 498.84 658.76 C471.85 686.75 432.01 702.45 393.33 703.61 C389.45 703.67 385.57 703.67 381.69 703.65 C379.93 703.65 378.16 703.66 376.4 703.66 C371.61 703.67 366.83 703.67 362.04 703.66 C356.86 703.65 351.68 703.66 346.49 703.67 C336.36 703.68 326.23 703.68 316.09 703.67 C307.85 703.67 299.61 703.67 291.37 703.67 C290.2 703.67 289.02 703.67 287.81 703.67 C285.42 703.67 283.03 703.67 280.63 703.67 C258.26 703.68 235.88 703.67 213.51 703.66 C194.34 703.64 175.18 703.64 156.02 703.66 C133.72 703.67 111.42 703.68 89.12 703.67 C86.74 703.67 84.35 703.67 81.97 703.67 C80.8 703.67 79.63 703.67 78.42 703.67 C70.2 703.66 61.98 703.67 53.75 703.68 C43.72 703.68 33.69 703.68 23.66 703.67 C18.55 703.66 13.44 703.66 8.33 703.67 C3.64 703.67 -1.06 703.67 -5.75 703.65 C-7.43 703.65 -9.12 703.65 -10.8 703.66 C-26.59 703.72 -42.41 702.12 -57.58 697.52 C-58.87 697.13 -58.87 697.13 -60.2 696.74 C-68.39 694.24 -76.15 691.04 -83.83 687.27 C-84.94 686.72 -86.06 686.18 -87.21 685.62 C-99.3 679.41 -109.88 671.53 -119.72 662.2 C-121.68 660.23 -121.68 660.23 -123.83 659.27 C-123.83 658.61 -123.83 657.95 -123.83 657.27 C-124.82 656.94 -125.81 656.61 -126.83 656.27 C-128.44 654.68 -128.44 654.68 -130.13 652.67 C-130.75 651.94 -131.36 651.22 -131.99 650.47 C-132.6 649.74 -133.2 649.02 -133.83 648.27 C-134.35 647.66 -134.87 647.05 -135.4 646.42 C-163.45 613.14 -174.22 570.22 -174.08 527.45 C-174.08 525.84 -174.09 524.23 -174.09 522.63 C-174.1 518.26 -174.09 513.9 -174.09 509.54 C-174.08 504.81 -174.09 500.09 -174.1 495.36 C-174.11 486.13 -174.1 476.89 -174.1 467.66 C-174.09 460.14 -174.09 452.63 -174.09 445.12 C-174.1 444.05 -174.1 442.98 -174.1 441.87 C-174.1 439.69 -174.1 437.52 -174.1 435.34 C-174.1 414.95 -174.1 394.55 -174.09 374.16 C-174.08 356.7 -174.08 339.23 -174.09 321.76 C-174.1 301.44 -174.1 281.11 -174.1 260.79 C-174.1 258.62 -174.1 256.45 -174.09 254.28 C-174.09 253.21 -174.09 252.14 -174.09 251.04 C-174.09 243.55 -174.1 236.05 -174.1 228.56 C-174.11 219.41 -174.1 210.27 -174.09 201.13 C-174.09 196.47 -174.09 191.81 -174.09 187.15 C-174.1 182.88 -174.1 178.6 -174.08 174.32 C-174.08 172.79 -174.08 171.25 -174.09 169.72 C-174.23 122.29 -157.79 80.58 -124.64 46.58 C-91.46 13.54 -45.85 -0.1 0 0 Z M-42.83 41.27 C-43.51 41.46 -44.2 41.66 -44.91 41.86 C-76.77 50.92 -105.09 72.84 -121.24 101.81 C-132.13 122.42 -137.15 142.5 -137.09 165.81 C-137.09 167.46 -137.09 169.11 -137.1 170.76 C-137.11 175.27 -137.11 179.78 -137.1 184.28 C-137.1 189.16 -137.11 194.03 -137.12 198.9 C-137.13 208.44 -137.13 217.98 -137.13 227.52 C-137.13 235.28 -137.13 243.03 -137.13 250.79 C-137.13 251.9 -137.14 253 -137.14 254.14 C-137.14 256.39 -137.14 258.64 -137.14 260.88 C-137.15 281.94 -137.15 303 -137.14 324.05 C-137.14 343.29 -137.15 362.52 -137.17 381.76 C-137.19 401.53 -137.19 421.31 -137.19 441.09 C-137.19 452.18 -137.19 463.27 -137.21 474.36 C-137.22 483.81 -137.22 493.25 -137.21 502.7 C-137.2 507.51 -137.2 512.32 -137.21 517.14 C-137.22 521.56 -137.22 525.97 -137.21 530.39 C-137.2 531.98 -137.21 533.56 -137.21 535.15 C-137.28 550.11 -135.65 565.13 -131.14 579.45 C-130.89 580.28 -130.63 581.1 -130.37 581.94 C-120.37 612.96 -97.73 638.8 -69.14 654.02 C-63.36 656.76 -57.44 658.95 -51.39 661.02 C-50.57 661.3 -49.75 661.58 -48.9 661.87 C-35.22 666.33 -22.33 667.71 -8.06 667.67 C-6.31 667.67 -4.56 667.68 -2.81 667.69 C1.95 667.71 6.71 667.71 11.48 667.7 C16.63 667.7 21.79 667.72 26.94 667.73 C37.02 667.76 47.1 667.77 57.19 667.77 C65.39 667.77 73.6 667.78 81.8 667.79 C105.1 667.81 128.41 667.83 151.71 667.82 C152.96 667.82 154.22 667.82 155.51 667.82 C157.39 667.82 157.39 667.82 159.32 667.82 C179.65 667.82 199.99 667.85 220.32 667.89 C241.25 667.94 262.17 667.96 283.09 667.95 C294.82 667.95 306.55 667.96 318.28 667.99 C328.27 668.02 338.26 668.03 348.25 668.01 C353.34 668 358.42 668 363.51 668.02 C384.56 668.13 403.93 667.81 424.17 661.27 C425.57 660.84 426.97 660.42 428.37 659.99 C457.44 650.85 480.97 629.9 495.17 603.27 C503.25 587.65 507.93 572.7 510.17 555.27 C510.26 554.58 510.35 553.9 510.45 553.19 C511.38 545.14 511.32 537.08 511.31 528.98 C511.32 527.33 511.32 525.68 511.32 524.04 C511.33 519.53 511.33 515.02 511.33 510.51 C511.33 505.64 511.34 500.77 511.35 495.9 C511.36 485.26 511.37 474.62 511.37 463.98 C511.38 457.33 511.38 450.68 511.38 444.03 C511.4 425.61 511.41 407.19 511.41 388.76 C511.41 387 511.41 387 511.41 385.19 C511.41 384.01 511.41 382.83 511.41 381.62 C511.41 379.22 511.41 376.83 511.41 374.44 C511.41 372.66 511.41 372.66 511.41 370.84 C511.42 351.62 511.44 332.39 511.46 313.16 C511.48 293.4 511.49 273.64 511.5 253.89 C511.5 242.8 511.5 231.71 511.52 220.63 C511.54 211.19 511.54 201.75 511.53 192.31 C511.53 187.49 511.53 182.68 511.54 177.87 C511.56 173.46 511.56 169.04 511.54 164.63 C511.54 163.04 511.54 161.45 511.55 159.87 C511.71 129.67 500.36 98.91 480.17 76.27 C478.93 74.86 478.93 74.86 477.67 73.43 C456.33 50.73 424.62 38.06 393.77 36.96 C383.23 36.67 372.69 36.72 362.15 36.74 C357.02 36.75 351.88 36.74 346.75 36.73 C336.72 36.71 326.69 36.71 316.66 36.73 C308.5 36.74 300.35 36.74 292.19 36.73 C291.03 36.73 289.86 36.73 288.66 36.73 C286.29 36.73 283.92 36.73 281.56 36.73 C259.41 36.72 237.26 36.73 215.11 36.75 C196.14 36.77 177.17 36.76 158.2 36.75 C136.12 36.72 114.04 36.72 91.96 36.73 C89.6 36.73 87.24 36.73 84.89 36.73 C83.73 36.73 82.57 36.73 81.37 36.73 C73.23 36.74 65.09 36.73 56.95 36.72 C47.02 36.71 37.09 36.71 27.16 36.74 C22.11 36.75 17.05 36.75 11.99 36.74 C-15.7 36.37 -15.7 36.37 -42.83 41.27 Z "
    fill="currentColor"
    transform="translate(343.82728576660156,132.73257446289063)"
  />
  <path
    d="M0 0 C1.29 1.06 2.56 2.14 3.81 3.25 C4.49 3.85 5.18 4.45 5.88 5.07 C17.5 16.01 26.21 30.1 35.32 43.12 C36.8 45.23 38.29 47.33 39.78 49.43 C47.74 60.65 55.51 71.99 63.25 83.36 C72.71 97.25 82.27 111.14 92.81 124.25 C97.01 123.75 98.74 122.78 101.44 119.56 C102.12 118.75 102.81 117.94 103.51 117.11 C106.6 113.27 109.64 109.38 112.67 105.49 C122.75 92.59 133.81 79.88 150.71 76.5 C164.19 74.92 176.76 77.18 187.81 85.25 C188.51 85.75 189.21 86.24 189.94 86.75 C197.82 93.01 203.27 101.72 209.07 109.84 C211.62 113.37 214.25 116.84 216.88 120.31 C225.56 131.86 234.08 143.5 242.01 155.58 C245.75 161.24 249.72 166.72 253.72 172.21 C257.8 177.82 261.79 183.49 265.75 189.19 C270.43 195.91 275.19 202.55 280.06 209.12 C280.65 209.91 281.23 210.7 281.83 211.52 C284.42 215.03 287.03 218.54 289.67 222.02 C302.45 239.1 308.27 256.25 305.35 277.66 C302.62 289.92 296.69 299.5 287.81 308.25 C287.25 308.82 286.68 309.4 286.1 309.99 C273.08 322.25 256.43 323.7 239.51 323.64 C237.66 323.65 235.81 323.66 233.95 323.66 C228.88 323.68 223.8 323.68 218.73 323.67 C213.24 323.67 207.76 323.68 202.28 323.7 C191.55 323.72 180.82 323.72 170.09 323.72 C161.36 323.72 152.64 323.72 143.91 323.73 C141.39 323.73 138.88 323.73 136.36 323.74 C134.49 323.74 134.49 323.74 132.57 323.74 C115.62 323.75 98.67 323.76 81.72 323.76 C81.06 323.76 80.4 323.76 79.71 323.75 C76.36 323.75 73 323.75 69.64 323.75 C68.98 323.75 68.31 323.75 67.62 323.75 C66.27 323.75 64.93 323.75 63.58 323.75 C42.61 323.74 21.64 323.76 0.68 323.79 C-22.9 323.83 -46.48 323.85 -70.06 323.84 C-82.54 323.84 -95.02 323.85 -107.49 323.87 C-118.12 323.89 -128.74 323.89 -139.36 323.88 C-144.78 323.87 -150.19 323.87 -155.61 323.89 C-160.58 323.91 -165.54 323.9 -170.51 323.88 C-172.3 323.87 -174.08 323.88 -175.87 323.89 C-194.37 324.02 -210.14 319.99 -224 306.94 C-235.82 294.46 -239.76 279.46 -239.46 262.64 C-238.83 248.33 -231.13 237.66 -222.35 226.97 C-219.88 223.87 -217.59 220.67 -215.31 217.44 C-211.73 212.36 -208.03 207.4 -204.22 202.49 C-195.93 191.78 -187.97 180.81 -180.16 169.74 C-176.26 164.27 -172.16 158.95 -168.06 153.62 C-163.28 147.39 -158.69 141.14 -154.44 134.53 C-150.53 128.84 -146.25 123.43 -142.04 117.96 C-137.81 112.45 -133.86 106.89 -130.09 101.05 C-127.41 97.1 -124.44 93.4 -121.46 89.67 C-118.09 85.44 -114.86 81.13 -111.69 76.75 C-107.67 71.21 -103.5 65.8 -99.24 60.44 C-96.13 56.51 -93.19 52.49 -90.31 48.38 C-86.15 42.43 -81.64 36.82 -77.01 31.22 C-73.46 26.9 -70.14 22.47 -66.94 17.88 C-60.25 8.35 -53.81 0.41 -43.19 -4.75 C-42.53 -5.09 -41.87 -5.43 -41.19 -5.78 C-27.65 -11.51 -11.6 -8.13 0 0 Z M-43.56 41.88 C-44.52 43.31 -45.49 44.75 -46.45 46.18 C-46.92 46.88 -47.38 47.58 -47.86 48.3 C-51.11 53.09 -54.67 57.65 -58.19 62.25 C-59.42 63.87 -60.65 65.48 -61.88 67.1 C-62.55 67.98 -63.22 68.85 -63.91 69.76 C-64.6 70.66 -65.29 71.57 -66 72.5 C-66.69 73.41 -67.39 74.32 -68.11 75.26 C-76.39 86.13 -84.61 97.02 -92.56 108.12 C-97.53 115.05 -102.69 121.8 -107.95 128.5 C-112.6 134.43 -117.04 140.5 -121.43 146.63 C-128.14 156 -135.05 165.22 -142.12 174.32 C-146.55 180.02 -150.71 185.86 -154.79 191.82 C-160.86 200.59 -167.46 209 -173.95 217.46 C-196.62 242.78 -196.62 242.78 -205.19 273.25 C-202.81 279.2 -198.75 283.48 -193.01 286.34 C-189.49 287.47 -186.23 287.53 -182.58 287.5 C-181.81 287.51 -181.05 287.51 -180.27 287.51 C-177.71 287.52 -175.14 287.52 -172.58 287.51 C-170.73 287.51 -168.88 287.52 -167.02 287.52 C-161.93 287.53 -156.83 287.53 -151.74 287.53 C-146.24 287.52 -140.75 287.53 -135.25 287.54 C-124.49 287.55 -113.72 287.55 -102.96 287.55 C-94.21 287.55 -85.46 287.55 -76.72 287.56 C-75.47 287.56 -74.23 287.56 -72.95 287.56 C-70.42 287.56 -67.9 287.56 -65.37 287.56 C-48.4 287.57 -31.43 287.57 -14.46 287.57 C-13.8 287.57 -13.13 287.57 -12.45 287.57 C-9.09 287.57 -5.72 287.57 -2.36 287.57 C-1.35 287.57 -1.35 287.57 -0.33 287.57 C1.02 287.57 2.37 287.57 3.72 287.57 C24.75 287.56 45.77 287.57 66.8 287.59 C90.42 287.61 114.04 287.62 137.66 287.61 C150.16 287.61 162.67 287.61 175.18 287.63 C185.83 287.64 196.47 287.64 207.12 287.63 C212.55 287.62 217.99 287.62 223.42 287.63 C228.4 287.65 233.37 287.64 238.34 287.63 C240.14 287.63 241.94 287.63 243.74 287.64 C246.19 287.65 248.63 287.64 251.08 287.62 C251.78 287.63 252.48 287.64 253.21 287.65 C258.85 287.58 262.88 286.13 266.94 282.19 C271.18 275.54 274.45 268.22 272.81 260.25 C269.26 249.93 261.99 241.26 255.55 232.6 C252.75 228.82 250 225 247.25 221.19 C246.71 220.44 246.17 219.7 245.62 218.93 C237.16 207.2 228.88 195.37 220.74 183.41 C216.45 177.13 212.02 170.96 207.55 164.81 C204.04 159.98 200.62 155.11 197.25 150.19 C195.44 147.54 193.63 144.9 191.81 142.25 C191.32 141.53 190.82 140.81 190.32 140.06 C179.82 122.82 179.82 122.82 163.81 112.25 C157.49 111.55 152.96 112.42 147.81 116.25 C144.26 119.74 141.03 123.46 137.81 127.25 C136.71 128.48 135.61 129.71 134.5 130.94 C131.62 134.23 128.89 137.64 126.15 141.06 C108.22 163.39 108.22 163.39 97.33 164.66 C88.83 165 82.97 164.15 75.81 159.25 C73.16 156.59 71.09 153.68 69 150.56 C68.42 149.73 67.83 148.9 67.23 148.04 C66.01 146.31 64.81 144.58 63.61 142.83 C61.33 139.55 58.97 136.32 56.61 133.1 C51.92 126.68 47.38 120.2 43.02 113.55 C39.49 108.27 35.82 103.08 32.16 97.88 C28.47 92.63 24.81 87.36 21.19 82.06 C17 75.95 12.74 69.88 8.45 63.84 C5.7 59.97 3 56.07 0.34 52.13 C-0.24 51.27 -0.82 50.42 -1.41 49.54 C-2.53 47.89 -3.63 46.24 -4.74 44.58 C-9.16 38.03 -14.43 30.84 -22.19 28.25 C-24.23 27.9 -24.23 27.9 -26.44 27.81 C-27.16 27.75 -27.89 27.69 -28.64 27.63 C-35.62 29.33 -39.87 36.17 -43.56 41.88 Z "
    fill="currentColor"
    transform="translate(502.1875,414.75)"
  />
  <circle
    cx="681"
    cy="338"
    r="60"
    fill="none"
    stroke="currentColor"
    stroke-width="28"
  />
  <path
    d="M0 0 C2.44 0 2.44 0 5 1 C7.67 5.41 8.63 9.51 9.44 14.56 C12.4 31.5 18.33 48.05 30 61 C30.55 61.66 31.09 62.32 31.65 63 C44.25 77.11 64.21 82.39 81.98 86.3 C82.85 86.49 83.71 86.69 84.61 86.89 C85.38 87.05 86.16 87.22 86.95 87.39 C89 88 89 88 92 90 C91.94 91.81 91.94 91.81 91 94 C85.91 96.64 80.66 97.9 75.1 99.24 C52.19 104.84 33.99 113.73 21.26 134.17 C13.04 147.87 9.52 162.51 6.61 178.05 C6 181 6 181 5 183 C3.02 183 1.04 183 -1 183 C-2.58 180.14 -3.35 177.73 -3.79 174.5 C-6.72 155.07 -12.33 138.24 -25 123 C-25.63 122.22 -26.27 121.45 -26.92 120.65 C-32.51 114.46 -39.68 110.75 -47 107 C-47.91 106.53 -48.82 106.05 -49.76 105.56 C-57.49 101.95 -65.66 100.39 -73.99 98.79 C-83.42 96.92 -83.42 96.92 -87 94 C-87.62 91.5 -87.62 91.5 -87 89 C-83.08 86.04 -79.42 85.36 -74.62 84.62 C-54.87 81.22 -34.46 73.43 -22 57 C-10.54 40.45 -5.83 23.37 -2.49 3.75 C-2 2 -2 2 0 0 Z "
    fill="currentColor"
    transform="translate(369,239)"
  />
  <path
    d="M0 0 C1.32 0 2.64 0 4 0 C5.8 4.94 7.22 9.81 8.34 14.95 C13 36.18 21.88 52.78 40.44 65.12 C51.28 71.3 63.83 74.32 76.06 76.26 C79.04 77.01 80.16 77.6 82 80 C81.29 81.91 81.29 81.91 80 84 C77.96 84.91 77.96 84.91 75.38 85.5 C74.39 85.74 73.4 85.98 72.39 86.23 C70 86.77 67.6 87.31 65.21 87.83 C43.67 92.68 29.05 103.61 17.06 121.96 C10.75 133.14 8.53 145.89 5.76 158.31 C5 161 5 161 3 164 C1.68 163.67 0.36 163.34 -1 163 C-1.24 161.86 -1.48 160.73 -1.73 159.55 C-2.78 154.69 -3.88 149.85 -5 145 C-5.28 143.77 -5.55 142.55 -5.84 141.29 C-10.32 123.58 -19.76 107.75 -35.19 97.62 C-46.17 91.37 -57.57 87.7 -69.99 85.64 C-73 85 -73 85 -76 83 C-76 80.69 -76 80.69 -75 78 C-70.65 75.78 -66.28 74.84 -61.53 73.78 C-48.31 70.75 -36.14 65.17 -26 56 C-25.38 55.46 -24.76 54.92 -24.12 54.36 C-19.28 49.88 -16.08 44.79 -13 39 C-12.33 37.75 -12.33 37.75 -11.66 36.48 C-7.02 27.05 -5.03 16.91 -2.88 6.69 C-2 3 -2 3 0 0 Z "
    fill="currentColor"
    transform="translate(867,810)"
  />
  <path
    d="M0 0 C1.9 0.7 1.9 0.7 4 2 C4.94 4.18 4.94 4.18 5.56 6.88 C5.92 8.36 5.92 8.36 6.29 9.88 C6.64 11.42 6.64 11.42 7 13 C11.74 33.59 20.06 52.49 38.35 64.48 C49.14 70.68 61.22 73.62 73.31 76.12 C77 77 77 77 79 79 C78.62 81.12 78.62 81.12 78 83 C77.05 83.22 76.11 83.44 75.13 83.66 C59.57 87.35 44.81 91.02 32 101 C31.33 101.49 30.65 101.98 29.96 102.49 C16.74 112.8 10.58 130.27 7 146 C6.7 147.27 6.4 148.53 6.09 149.84 C5.38 152.89 4.68 155.94 4 159 C2.68 159.33 1.36 159.66 0 160 C-3.32 155.39 -4.12 150.64 -5.25 145.19 C-9.95 124.25 -18.84 108.03 -37 96 C-46.13 90.32 -56.17 88.31 -66.59 86.18 C-68.18 85.84 -68.18 85.84 -69.79 85.49 C-71.22 85.2 -71.22 85.2 -72.68 84.91 C-75 84 -75 84 -76.33 81.91 C-76.55 81.28 -76.77 80.65 -77 80 C-73.74 76.05 -71.25 75.37 -66.25 74.62 C-47.88 71.47 -29.86 63.5 -18.84 47.96 C-10.59 35.06 -5.76 21.53 -3.62 6.41 C-2.92 3.69 -1.81 2.12 0 0 Z "
    fill="currentColor"
    transform="translate(181,32)"
  />
</svg>
